<svg width="168" height="24" viewBox="0 0 168 24" fill="none" xmlns="http://www.w3.org/2000/svg">
<mask id="path-1-outside-1_79_3" maskUnits="userSpaceOnUse" x="0" y="0" width="168" height="25" fill="black">
<rect fill="white" width="168" height="25"/>
<path d="M6.24588 10.69H14.4419V14.6864H6.24588V24H0.657709V0.5297H16.0675L15.5256 4.49222H6.24588V10.69ZM32.7849 10.1481H40.9131V14.009H32.7849V20.0036H42.5727V24H27.2306V0.5297H42.5727L41.9969 4.49222H32.7849V10.1481ZM70.1616 7.67578C70.1616 9.25627 69.7326 10.5884 68.8746 11.6722C68.0392 12.7334 66.9103 13.5462 65.4879 14.1106L71.6179 24H65.3185L60.2384 15.0251H58.6804V24H53.1261V0.5297H60.5093C63.738 0.5297 66.1539 1.11674 67.757 2.29082C69.3601 3.4649 70.1616 5.25988 70.1616 7.67578ZM64.438 7.67578C64.438 6.54686 64.1106 5.72274 63.4558 5.20344C62.8236 4.68414 61.8414 4.42448 60.5093 4.42448H58.6804V11.198H60.7464C61.9656 11.198 62.88 10.9158 63.4897 10.3513C64.1219 9.78686 64.438 8.89502 64.438 7.67578ZM97.2425 7.67578C97.2425 9.25627 96.8135 10.5884 95.9555 11.6722C95.1201 12.7334 93.9912 13.5462 92.5688 14.1106L98.6988 24H92.3994L87.3193 15.0251H85.7614V24H80.2071V0.5297H87.5902C90.8189 0.5297 93.2348 1.11674 94.8379 2.29082C96.441 3.4649 97.2425 5.25988 97.2425 7.67578ZM91.5189 7.67578C91.5189 6.54686 91.1915 5.72274 90.5367 5.20344C89.9045 4.68414 88.9223 4.42448 87.5902 4.42448H85.7614V11.198H87.8273C89.0465 11.198 89.961 10.9158 90.5706 10.3513C91.2028 9.78686 91.5189 8.89502 91.5189 7.67578ZM111.996 18.9198L110.776 24H104.951L112.131 0.5297H118.871L126.051 24H120.09L118.871 18.9198H111.996ZM117.956 14.9235L115.416 4.52608L112.876 14.9235H117.956ZM151.404 7.67578C151.404 9.25627 150.975 10.5884 150.117 11.6722C149.282 12.7334 148.153 13.5462 146.731 14.1106L152.861 24H146.561L141.481 15.0251H139.923V24H134.369V0.5297H141.752C144.981 0.5297 147.397 1.11674 149 2.29082C150.603 3.4649 151.404 5.25988 151.404 7.67578ZM145.681 7.67578C145.681 6.54686 145.353 5.72274 144.699 5.20344C144.066 4.68414 143.084 4.42448 141.752 4.42448H139.923V11.198H141.989C143.208 11.198 144.123 10.9158 144.732 10.3513C145.365 9.78686 145.681 8.89502 145.681 7.67578ZM161.636 0.51597H167.36V24H161.636V0.51597Z"/>
</mask>
<path d="M6.24588 10.69H6.09239V10.8435H6.24588V10.69ZM14.4419 10.69H14.5953V10.5365H14.4419V10.69ZM14.4419 14.6864V14.8399H14.5953V14.6864H14.4419ZM6.24588 14.6864V14.5329H6.09239V14.6864H6.24588ZM6.24588 24V24.1535H6.39936V24H6.24588ZM0.657709 24H0.504221V24.1535H0.657709V24ZM0.657709 0.5297V0.376212H0.504221V0.5297H0.657709ZM16.0675 0.5297L16.2196 0.550496L16.2434 0.376212H16.0675V0.5297ZM15.5256 4.49222V4.64571H15.6595L15.6777 4.51301L15.5256 4.49222ZM6.24588 4.49222V4.33873H6.09239V4.49222H6.24588ZM6.24588 10.8435H14.4419V10.5365H6.24588V10.8435ZM14.2884 10.69V14.6864H14.5953V10.69H14.2884ZM14.4419 14.5329H6.24588V14.8399H14.4419V14.5329ZM6.09239 14.6864V24H6.39936V14.6864H6.09239ZM6.24588 23.8465H0.657709V24.1535H6.24588V23.8465ZM0.811197 24V0.5297H0.504221V24H0.811197ZM0.657709 0.683188H16.0675V0.376212H0.657709V0.683188ZM15.9154 0.508904L15.3735 4.47142L15.6777 4.51301L16.2196 0.550496L15.9154 0.508904ZM15.5256 4.33873H6.24588V4.64571H15.5256V4.33873ZM6.09239 4.49222V10.69H6.39936V4.49222H6.09239ZM32.7849 10.1481H32.6314V10.3016H32.7849V10.1481ZM40.9131 10.1481H41.0666V9.99463H40.9131V10.1481ZM40.9131 14.009V14.1625H41.0666V14.009H40.9131ZM32.7849 14.009V13.8555H32.6314V14.009H32.7849ZM32.7849 20.0036H32.6314V20.1571H32.7849V20.0036ZM42.5727 20.0036H42.7262V19.8501H42.5727V20.0036ZM42.5727 24V24.1535H42.7262V24H42.5727ZM27.2306 24H27.0771V24.1535H27.2306V24ZM27.2306 0.5297V0.376212H27.0771V0.5297H27.2306ZM42.5727 0.5297L42.7246 0.55177L42.7501 0.376212H42.5727V0.5297ZM41.9969 4.49222V4.64571H42.1297L42.1488 4.51429L41.9969 4.49222ZM32.7849 4.49222V4.33873H32.6314V4.49222H32.7849ZM32.7849 10.3016H40.9131V9.99463H32.7849V10.3016ZM40.7597 10.1481V14.009H41.0666V10.1481H40.7597ZM40.9131 13.8555H32.7849V14.1625H40.9131V13.8555ZM32.6314 14.009V20.0036H32.9384V14.009H32.6314ZM32.7849 20.1571H42.5727V19.8501H32.7849V20.1571ZM42.4192 20.0036V24H42.7262V20.0036H42.4192ZM42.5727 23.8465H27.2306V24.1535H42.5727V23.8465ZM27.3841 24V0.5297H27.0771V24H27.3841ZM27.2306 0.683188H42.5727V0.376212H27.2306V0.683188ZM42.4208 0.50763L41.845 4.47015L42.1488 4.51429L42.7246 0.55177L42.4208 0.50763ZM41.9969 4.33873H32.7849V4.64571H41.9969V4.33873ZM32.6314 4.49222V10.1481H32.9384V4.49222H32.6314ZM68.8746 11.6722L68.7543 11.5769L68.754 11.5772L68.8746 11.6722ZM65.4879 14.1106L65.4312 13.968L65.2608 14.0356L65.3574 14.1915L65.4879 14.1106ZM71.6179 24V24.1535H71.8936L71.7484 23.9191L71.6179 24ZM65.3185 24L65.1849 24.0756L65.229 24.1535H65.3185V24ZM60.2384 15.0251L60.3719 14.9495L60.3279 14.8716H60.2384V15.0251ZM58.6804 15.0251V14.8716H58.527V15.0251H58.6804ZM58.6804 24V24.1535H58.8339V24H58.6804ZM53.1261 24H52.9727V24.1535H53.1261V24ZM53.1261 0.5297V0.376212H52.9727V0.5297H53.1261ZM67.757 2.29082L67.6663 2.41465L67.6663 2.41465L67.757 2.29082ZM63.4558 5.20344L63.3584 5.32206L63.3604 5.3237L63.4558 5.20344ZM58.6804 4.42448V4.27099H58.527V4.42448H58.6804ZM58.6804 11.198H58.527V11.3515H58.6804V11.198ZM63.4897 10.3513L63.3874 10.2368L63.3854 10.2387L63.4897 10.3513ZM70.0081 7.67578C70.0081 9.2269 69.5878 10.5241 68.7543 11.5769L68.995 11.7674C69.8774 10.6527 70.3151 9.28564 70.3151 7.67578H70.0081ZM68.754 11.5772C67.9375 12.6144 66.8319 13.4121 65.4312 13.968L65.5445 14.2533C66.9887 13.6802 68.1409 12.8523 68.9952 11.7671L68.754 11.5772ZM65.3574 14.1915L71.4874 24.0809L71.7484 23.9191L65.6183 14.0298L65.3574 14.1915ZM71.6179 23.8465H65.3185V24.1535H71.6179V23.8465ZM65.4521 23.9244L60.3719 14.9495L60.1048 15.1007L65.1849 24.0756L65.4521 23.9244ZM60.2384 14.8716H58.6804V15.1786H60.2384V14.8716ZM58.527 15.0251V24H58.8339V15.0251H58.527ZM58.6804 23.8465H53.1261V24.1535H58.6804V23.8465ZM53.2796 24V0.5297H52.9727V24H53.2796ZM53.1261 0.683188H60.5093V0.376212H53.1261V0.683188ZM60.5093 0.683188C63.7241 0.683188 66.1014 1.26854 67.6663 2.41465L67.8477 2.16699C66.2064 0.964938 63.7519 0.376212 60.5093 0.376212V0.683188ZM67.6663 2.41465C69.2212 3.55345 70.0081 5.29694 70.0081 7.67578H70.3151C70.3151 5.22283 69.4989 3.37634 67.8477 2.16699L67.6663 2.41465ZM64.5914 7.67578C64.5914 6.51757 64.2545 5.641 63.5512 5.08318L63.3604 5.3237C63.9666 5.80448 64.2845 6.57614 64.2845 7.67578H64.5914ZM63.5532 5.08484C62.8809 4.53261 61.8562 4.27099 60.5093 4.27099V4.57797C61.8266 4.57797 62.7662 4.83566 63.3584 5.32204L63.5532 5.08484ZM60.5093 4.27099H58.6804V4.57797H60.5093V4.27099ZM58.527 4.42448V11.198H58.8339V4.42448H58.527ZM58.6804 11.3515H60.7464V11.0445H58.6804V11.3515ZM60.7464 11.3515C61.9865 11.3515 62.9451 11.0647 63.5939 10.4639L63.3854 10.2387C62.8149 10.7669 61.9448 11.0445 60.7464 11.0445V11.3515ZM63.5919 10.4658C64.2689 9.86133 64.5914 8.91913 64.5914 7.67578H64.2845C64.2845 8.87091 63.9748 9.7124 63.3874 10.2368L63.5919 10.4658ZM95.9555 11.6722L95.8352 11.5769L95.8349 11.5772L95.9555 11.6722ZM92.5688 14.1106L92.5122 13.968L92.3417 14.0356L92.4383 14.1915L92.5688 14.1106ZM98.6988 24V24.1535H98.9745L98.8293 23.9191L98.6988 24ZM92.3994 24L92.2659 24.0756L92.3099 24.1535H92.3994V24ZM87.3193 15.0251L87.4528 14.9495L87.4088 14.8716H87.3193V15.0251ZM85.7614 15.0251V14.8716H85.6079V15.0251H85.7614ZM85.7614 24V24.1535H85.9148V24H85.7614ZM80.2071 24H80.0536V24.1535H80.2071V24ZM80.2071 0.5297V0.376212H80.0536V0.5297H80.2071ZM94.8379 2.29082L94.7472 2.41465L94.7472 2.41465L94.8379 2.29082ZM90.5367 5.20344L90.4393 5.32206L90.4413 5.3237L90.5367 5.20344ZM85.7614 4.42448V4.27099H85.6079V4.42448H85.7614ZM85.7614 11.198H85.6079V11.3515H85.7614V11.198ZM90.5706 10.3513L90.4683 10.2368L90.4663 10.2387L90.5706 10.3513ZM97.089 7.67578C97.089 9.2269 96.6687 10.5241 95.8352 11.5769L96.0759 11.7674C96.9583 10.6527 97.396 9.28564 97.396 7.67578H97.089ZM95.8349 11.5772C95.0184 12.6144 93.9128 13.4121 92.5122 13.968L92.6254 14.2533C94.0696 13.6802 95.2218 12.8523 96.0761 11.7671L95.8349 11.5772ZM92.4383 14.1915L98.5684 24.0809L98.8293 23.9191L92.6992 14.0298L92.4383 14.1915ZM98.6988 23.8465H92.3994V24.1535H98.6988V23.8465ZM92.533 23.9244L87.4528 14.9495L87.1857 15.1007L92.2659 24.0756L92.533 23.9244ZM87.3193 14.8716H85.7614V15.1786H87.3193V14.8716ZM85.6079 15.0251V24H85.9148V15.0251H85.6079ZM85.7614 23.8465H80.2071V24.1535H85.7614V23.8465ZM80.3606 24V0.5297H80.0536V24H80.3606ZM80.2071 0.683188H87.5902V0.376212H80.2071V0.683188ZM87.5902 0.683188C90.805 0.683188 93.1823 1.26854 94.7472 2.41465L94.9286 2.16699C93.2873 0.964938 90.8328 0.376212 87.5902 0.376212V0.683188ZM94.7472 2.41465C96.3021 3.55345 97.089 5.29694 97.089 7.67578H97.396C97.396 5.22283 96.5798 3.37634 94.9286 2.16699L94.7472 2.41465ZM91.6724 7.67578C91.6724 6.51757 91.3354 5.641 90.6321 5.08318L90.4413 5.3237C91.0475 5.80448 91.3654 6.57614 91.3654 7.67578H91.6724ZM90.6341 5.08484C89.9619 4.53261 88.9371 4.27099 87.5902 4.27099V4.57797C88.9076 4.57797 89.8472 4.83566 90.4393 5.32204L90.6341 5.08484ZM87.5902 4.27099H85.7614V4.57797H87.5902V4.27099ZM85.6079 4.42448V11.198H85.9148V4.42448H85.6079ZM85.7614 11.3515H87.8273V11.0445H85.7614V11.3515ZM87.8273 11.3515C89.0674 11.3515 90.026 11.0647 90.6749 10.4639L90.4663 10.2387C89.8959 10.7669 89.0257 11.0445 87.8273 11.0445V11.3515ZM90.6728 10.4658C91.3498 9.86133 91.6724 8.91913 91.6724 7.67578H91.3654C91.3654 8.87091 91.0557 9.7124 90.4683 10.2368L90.6728 10.4658ZM111.996 18.9198V18.7664H111.875L111.846 18.884L111.996 18.9198ZM110.776 24V24.1535H110.897L110.926 24.0358L110.776 24ZM104.951 24L104.804 23.9551L104.744 24.1535H104.951V24ZM112.131 0.5297V0.376212H112.017L111.984 0.484799L112.131 0.5297ZM118.871 0.5297L119.017 0.484799L118.984 0.376212H118.871V0.5297ZM126.051 24V24.1535H126.258L126.197 23.9551L126.051 24ZM120.09 24L119.941 24.0358L119.969 24.1535H120.09V24ZM118.871 18.9198L119.02 18.884L118.992 18.7664H118.871V18.9198ZM117.956 14.9235V15.077H118.152L118.105 14.887L117.956 14.9235ZM115.416 4.52608L115.565 4.48966L115.267 4.48966L115.416 4.52608ZM112.876 14.9235L112.727 14.887L112.681 15.077H112.876V14.9235ZM111.846 18.884L110.627 23.9642L110.926 24.0358L112.145 18.9557L111.846 18.884ZM110.776 23.8465H104.951V24.1535H110.776V23.8465ZM105.098 24.0449L112.278 0.574601L111.984 0.484799L104.804 23.9551L105.098 24.0449ZM112.131 0.683188H118.871V0.376212H112.131V0.683188ZM118.724 0.574601L125.904 24.0449L126.197 23.9551L119.017 0.484799L118.724 0.574601ZM126.051 23.8465H120.09V24.1535H126.051V23.8465ZM120.239 23.9642L119.02 18.884L118.721 18.9557L119.941 24.0358L120.239 23.9642ZM118.871 18.7664H111.996V19.0733H118.871V18.7664ZM118.105 14.887L115.565 4.48966L115.267 4.56251L117.807 14.9599L118.105 14.887ZM115.267 4.48966L112.727 14.887L113.025 14.9599L115.565 4.56251L115.267 4.48966ZM112.876 15.077H117.956V14.77H112.876V15.077ZM150.117 11.6722L149.997 11.5769L149.997 11.5772L150.117 11.6722ZM146.731 14.1106L146.674 13.968L146.503 14.0356L146.6 14.1915L146.731 14.1106ZM152.861 24V24.1535H153.136L152.991 23.9191L152.861 24ZM146.561 24L146.428 24.0756L146.472 24.1535H146.561V24ZM141.481 15.0251L141.615 14.9495L141.571 14.8716H141.481V15.0251ZM139.923 15.0251V14.8716H139.77V15.0251H139.923ZM139.923 24V24.1535H140.077V24H139.923ZM134.369 24H134.215V24.1535H134.369V24ZM134.369 0.5297V0.376212H134.215V0.5297H134.369ZM149 2.29082L148.909 2.41465L148.909 2.41465L149 2.29082ZM144.699 5.20344L144.601 5.32206L144.603 5.3237L144.699 5.20344ZM139.923 4.42448V4.27099H139.77V4.42448H139.923ZM139.923 11.198H139.77V11.3515H139.923V11.198ZM144.732 10.3513L144.63 10.2368L144.628 10.2387L144.732 10.3513ZM151.251 7.67578C151.251 9.2269 150.83 10.5241 149.997 11.5769L150.238 11.7674C151.12 10.6527 151.558 9.28564 151.558 7.67578H151.251ZM149.997 11.5772C149.18 12.6144 148.075 13.4121 146.674 13.968L146.787 14.2533C148.231 13.6802 149.384 12.8523 150.238 11.7671L149.997 11.5772ZM146.6 14.1915L152.73 24.0809L152.991 23.9191L146.861 14.0298L146.6 14.1915ZM152.861 23.8465H146.561V24.1535H152.861V23.8465ZM146.695 23.9244L141.615 14.9495L141.348 15.1007L146.428 24.0756L146.695 23.9244ZM141.481 14.8716H139.923V15.1786H141.481V14.8716ZM139.77 15.0251V24H140.077V15.0251H139.77ZM139.923 23.8465H134.369V24.1535H139.923V23.8465ZM134.522 24V0.5297H134.215V24H134.522ZM134.369 0.683188H141.752V0.376212H134.369V0.683188ZM141.752 0.683188C144.967 0.683188 147.344 1.26854 148.909 2.41465L149.09 2.16699C147.449 0.964938 144.995 0.376212 141.752 0.376212V0.683188ZM148.909 2.41465C150.464 3.55345 151.251 5.29694 151.251 7.67578H151.558C151.558 5.22283 150.742 3.37634 149.09 2.16699L148.909 2.41465ZM145.834 7.67578C145.834 6.51757 145.497 5.641 144.794 5.08318L144.603 5.3237C145.209 5.80448 145.527 6.57614 145.527 7.67578H145.834ZM144.796 5.08484C144.124 4.53261 143.099 4.27099 141.752 4.27099V4.57797C143.069 4.57797 144.009 4.83566 144.601 5.32204L144.796 5.08484ZM141.752 4.27099H139.923V4.57797H141.752V4.27099ZM139.77 4.42448V11.198H140.077V4.42448H139.77ZM139.923 11.3515H141.989V11.0445H139.923V11.3515ZM141.989 11.3515C143.229 11.3515 144.188 11.0647 144.837 10.4639L144.628 10.2387C144.058 10.7669 143.187 11.0445 141.989 11.0445V11.3515ZM144.835 10.4658C145.512 9.86133 145.834 8.91913 145.834 7.67578H145.527C145.527 8.87091 145.218 9.7124 144.63 10.2368L144.835 10.4658ZM161.636 0.51597V0.362481H161.483V0.51597H161.636ZM167.36 0.51597H167.513V0.362481H167.36V0.51597ZM167.36 24V24.1535H167.513V24H167.36ZM161.636 24H161.483V24.1535H161.636V24ZM161.636 0.669458H167.36V0.362481H161.636V0.669458ZM167.206 0.51597V24H167.513V0.51597H167.206ZM167.36 23.8465H161.636V24.1535H167.36V23.8465ZM161.79 24V0.51597H161.483V24H161.79Z" fill="white" mask="url(#path-1-outside-1_79_3)"/>
</svg>
